# xmcd CD database file
# Copyright (C) 1993-1998 Ti Kan
#
# Track frame offsets:
#	183
#	15408
#	28483
#	42638
#	55865
#	67358
#	80623
#	91368
#	104168
#	115865
#	129215
#	142948
#	157868
#	169808
#
# Disc length: 2427 seconds
#
# Revision: 1
# Processed by: cddbd v1.4b41PL1 Copyright (c) Steve Scherf et al.
# Submitted via: xmcd 2.2 PL0
#
DISCID=c109790e
DTITLE=Muddy Waters - They Call Me Muddy Waters
DYEAR=1900
DGENRE=
TTITLE0=They Call Me Muddy Waters
TTITLE1=Mannish Boy
TTITLE2=One More Mile
TTITLE3=She Moves Me
TTITLE4=Sittin' Here Drinkin'
TTITLE5=I Feel So Good
TTITLE6=She'Äs All Right
TTITLE7=Louisiana Blues
TTITLE8=Goni' Home
TTITLE9=Rollin' And Tumblin'
TTITLE10=I Want You To Love Me
TTITLE11=Rock Me
TTITLE12=The Stuff You Gotta Watch
TTITLE13=So Glad I'm Living
EXTD=
EXTT0=
EXTT1=
EXTT2=
EXTT3=
EXTT4=
EXTT5=
EXTT6=
EXTT7=
EXTT8=
EXTT9=
EXTT10=
EXTT11=
EXTT12=
EXTT13=
PLAYORDER=
